<svg width="62" height="49" viewBox="0 0 62 49" fill="none" xmlns="http://www.w3.org/2000/svg">
<path d="M14.6848 0.5L0.138672 24.3189L14.6848 48.5H26.5282L18.0075 33.2696C16.4678 30.5189 13.7343 28.5182 10.5013 27.7759L8.33399 27.2777C7.6756 27.1261 7.20678 26.5816 7.19397 25.9498L7.11968 22.6469C7.10431 21.9278 7.67304 21.3165 8.43903 21.2292L10.3297 21.016C13.6165 20.6436 16.4934 18.7738 18.0024 16.0283L26.5282 0.5H14.6848Z" fill="#FF6600"/>
<path d="M32.4211 0.5L17.875 24.3164L32.4211 48.4974H44.2645L35.7438 33.2671C34.2041 30.5164 31.4707 28.5156 28.2376 27.7734L26.0703 27.2751C25.4119 27.1236 24.9431 26.5791 24.9303 25.9473L24.856 22.6444C24.8406 21.9252 25.4094 21.3139 26.1754 21.2266L28.066 21.0135C31.3528 20.641 34.2298 18.7713 35.7387 16.0257L44.267 0.502568H32.4237L32.4211 0.5Z" fill="#FF6600"/>
<path d="M42.5888 22.6442C42.5734 21.9251 43.1422 21.3138 43.9081 21.2265L45.7988 21.0133C49.0856 20.6409 51.9626 18.7712 53.4715 16.0256L61.9998 0.502441H50.1565L35.6104 24.3188H42.6272L42.5888 22.6468V22.6442Z" fill="#FF6600"/>
</svg>
